<?xml version="1.0" standalone="no"?>
<!DOCTYPE svg PUBLIC "-//W3C//DTD SVG 20010904//EN"
 "http://www.w3.org/TR/2001/REC-SVG-20010904/DTD/svg10.dtd">
<svg version="1.0" xmlns="http://www.w3.org/2000/svg"
 width="200.000000pt" height="200.000000pt" viewBox="0 0 200.000000 200.000000"
 preserveAspectRatio="xMidYMid meet">

<g transform="translate(0.000000,200.000000) scale(0.100000,-0.100000)"
fill="#000000" stroke="none">
<path d="M679 1513 c-55 -9 -131 -65 -163 -123 l-31 -55 -3 -290 c-2 -159 -1
-313 3 -341 9 -78 58 -150 125 -188 l55 -31 290 -3 c160 -2 313 -1 341 3 78 9
150 58 187 124 28 50 31 64 35 165 4 128 -5 154 -51 142 -27 -6 -27 -7 -27
-99 0 -50 -5 -110 -11 -132 -14 -50 -64 -100 -114 -114 -52 -14 -576 -15 -628
0 -56 15 -103 61 -116 113 -15 59 -15 577 0 631 15 54 61 101 115 114 23 6 80
11 126 11 82 0 108 9 108 36 0 34 -30 44 -123 43 -51 -1 -104 -4 -118 -6z"/>
<path d="M1320 1498 c-26 -7 -91 -65 -243 -216 -115 -114 -214 -218 -222 -232
-20 -40 -66 -210 -63 -234 4 -31 30 -31 147 -1 l106 28 222 221 c232 229 251
254 240 321 -14 87 -100 139 -187 113z m84 -94 c39 -39 25 -60 -179 -264
l-195 -195 -42 43 -43 42 195 195 c204 204 225 218 264 179z m-466 -506 c-16
-10 -48 -10 -48 0 0 4 3 17 6 30 l7 23 23 -22 c18 -17 21 -25 12 -31z"/>
</g>
</svg>
