<?xml version="1.0" encoding="UTF-8" standalone="no"?>
<!-- Creator: CorelDRAW X6 -->

<svg
   xml:space="preserve"
   width="210mm"
   height="297mm"
   version="1.1"
   style="shape-rendering:geometricPrecision; text-rendering:geometricPrecision; image-rendering:optimizeQuality; fill-rule:evenodd; clip-rule:evenodd"
   viewBox="0 0 21000 29700"
   id="svg104"
   sodipodi:docname="pielegniarka.svg"
   inkscape:version="1.1.2 (b8e25be833, 2022-02-05)"
   xmlns:inkscape="http://www.inkscape.org/namespaces/inkscape"
   xmlns:sodipodi="http://sodipodi.sourceforge.net/DTD/sodipodi-0.dtd"
   xmlns="http://www.w3.org/2000/svg"
   xmlns:svg="http://www.w3.org/2000/svg"><sodipodi:namedview
   id="namedview106"
   pagecolor="#ffffff"
   bordercolor="#666666"
   borderopacity="1.0"
   inkscape:pageshadow="2"
   inkscape:pageopacity="0.0"
   inkscape:pagecheckerboard="0"
   inkscape:document-units="mm"
   showgrid="false"
   inkscape:zoom="0.71090067"
   inkscape:cx="397.38322"
   inkscape:cy="561.96318"
   inkscape:window-width="1920"
   inkscape:window-height="991"
   inkscape:window-x="-9"
   inkscape:window-y="-9"
   inkscape:window-maximized="1"
   inkscape:current-layer="Warstwa_x0020_1" />
 <defs
   id="defs7">
  <style
   type="text/css"
   id="style2">
   <![CDATA[
    .fil1 {fill:black}
    .fil11 {fill:#434343}
    .fil9 {fill:#755033}
    .fil4 {fill:#765134}
    .fil12 {fill:#844C4C}
    .fil15 {fill:#8B8B8B}
    .fil8 {fill:#95C7C6}
    .fil2 {fill:#966F52}
    .fil14 {fill:#C4C4C4}
    .fil7 {fill:#CBAC94}
    .fil5 {fill:#F3E6E6}
    .fil0 {fill:#FDDAC6}
    .fil13 {fill:#FDFDFD}
    .fil6 {fill:#FF6363}
    .fil10 {fill:#FFA789}
    .fil3 {fill:#FFFEFE}
   ]]>
  </style>
   <clipPath
   id="id0">
    <rect
   x="2987"
   y="2362"
   width="15026"
   height="24977"
   id="rect4" />
   </clipPath>
 </defs>
 <g
   id="Warstwa_x0020_1"
   inkscape:label="Warstwa 1"
   inkscape:groupmode="layer">
  <metadata
   id="CorelCorpID_0Corel-Layer" />
  
  <g
   id="_948452160">
   <path
   class="fil0"
   d="m 11327,14106 c -418,294 -842,364 -1317,110 -181,-97 -339,-182 -300,-332 138,-73 300,314 852,323 187,3 355,-51 495,-123 124,-63 277,-219 390,-184 48,124 -18,134 -120,205 z m 2374,-851 c 771,-145 1193,449 444,606 -249,52 -603,3 -758,-133 -241,-212 65,-426 314,-473 z m -6576,0 c 771,-145 1192,449 444,606 -249,52 -603,3 -758,-133 -241,-212 65,-426 314,-473 z m 5804,-408 c -318,666 -1363,273 -1123,-454 196,-594 1190,-600 1181,292 194,88 276,49 478,63 -166,154 -317,146 -536,98 z m -4730,-201 c 18,-203 34,-330 146,-451 375,-405 943,-198 1052,241 171,688 -798,1108 -1157,363 -135,49 -225,145 -480,31 -30,-13 -42,-19 -65,-36 -49,-35 -30,-22 -55,-52 296,17 328,8 559,-96 z m 3611,-1125 c -83,-504 1175,-412 1160,68 -148,-4 -262,-169 -565,-169 -242,0 -441,145 -595,101 z m -3643,74 c -7,-416 892,-550 1131,-252 100,124 34,227 -130,180 -116,-34 -184,-78 -325,-96 -396,-50 -513,144 -676,168 z m -1357,-513 c -237,845 -453,3051 6,3787 134,215 290,401 432,565 140,162 347,332 542,479 1247,946 3187,1186 4762,589 360,-136 669,-310 965,-530 51,-38 95,-72 142,-107 57,-43 91,-83 145,-129 178,-149 787,-803 842,-1149 177,-1119 180,-2116 60,-3228 l -150,370 c -48,118 -75,279 -223,277 -73,-97 -113,-713 -159,-912 -66,-286 -153,-575 -258,-835 -159,-391 -328,-750 -546,-1098 -68,-109 -162,-238 -209,-333 l -1444,710 c -1231,555 -2592,1152 -3937,1416 -323,63 -683,67 -970,126 z"
   id="path14" />
   <path
   class="fil1"
   d="m 9610,25899 c 464,133 404,228 969,128 l 2,359 c -242,25 -726,-10 -858,-225 -50,-82 -96,-160 -113,-262 z m 1135,484 -6,-367 c 531,123 632,18 1075,-150 -68,230 -139,381 -358,448 -219,66 -470,81 -711,69 z m -6,-558 1,-1747 1475,-29 c -64,478 -159,989 -280,1450 -45,171 -44,147 -199,225 -83,42 -204,95 -299,127 -299,100 -448,93 -698,-25 z m -1544,-1780 1383,44 3,1746 c -190,134 -463,83 -669,12 -97,-33 -212,-83 -296,-128 -127,-68 -115,-113 -155,-269 -104,-405 -228,-979 -266,-1406 z m 3535,-2356 57,-32 21,74 c 8,262 160,1162 205,1587 18,175 89,415 -79,489 -316,140 -4293,165 -4511,-34 -148,-135 153,-1813 188,-2098 118,44 497,558 606,544 124,-66 300,-293 423,-396 249,-1 530,45 797,44 472,-3 1110,-23 1576,-70 247,-25 501,-91 717,-110 z M 7811,20614 c 61,-102 208,-250 310,-309 119,107 252,395 647,758 226,207 510,417 819,569 -51,81 -121,135 -192,206 -72,72 -108,138 -216,182 -66,-100 -244,-258 -341,-354 l -959,-958 c -56,-60 -32,-23 -67,-94 z m 2186,-1414 605,617 c -47,72 -66,80 -103,135 -101,-41 -555,-504 -642,-615 l 139,-137 z m 45,1582 c 21,258 475,183 -6,677 -66,68 -158,82 -275,57 -280,-59 -724,-429 -892,-579 -260,-233 -462,-513 -663,-807 -172,-252 -246,-275 -229,-499 14,-189 11,-496 93,-642 106,56 193,138 296,209 320,221 144,32 153,246 153,135 199,155 324,298 78,90 178,236 248,350 173,279 271,510 495,729 l 576,-130 c -51,54 -70,42 -121,92 z m 467,-1358 c -83,-32 -132,-94 -172,-164 136,2 161,36 172,164 z m -928,-612 c 103,44 238,198 298,276 -71,77 -177,145 -222,255 42,87 712,759 805,809 138,-36 160,-142 274,-216 l 271,278 c -79,108 -238,247 -343,352 -64,64 -110,110 -174,174 -56,56 -118,148 -189,135 -1,-5 0,-13 0,-15 18,-68 16,-33 54,-80 40,-50 63,-37 34,-135 -79,-269 -673,16 -749,-9 -131,-112 -274,-397 -375,-570 -121,-208 -350,-467 -374,-552 l 689,-702 z m 3792,306 c -39,20 -189,105 -186,176 8,218 439,-168 654,-310 145,-95 317,-193 471,-276 313,-170 337,-285 460,-289 73,107 2,145 106,200 34,18 154,34 215,55 130,45 315,106 373,196 -109,112 -327,67 -486,109 -67,18 -290,189 -358,238 -234,171 -461,330 -695,500 -235,172 -548,457 -744,440 -260,-22 -349,-588 -361,-815 l 530,-363 23,139 z m -713,125 c -22,425 313,1908 172,2217 -94,84 -309,112 -459,132 -311,66 -2152,172 -2390,93 69,-53 57,-33 112,-37 33,-59 103,-134 144,-187 411,-538 -8,-238 339,-583 165,-163 463,-501 631,-617 l -4,-106 c -123,-44 -458,-491 -568,-562 20,-166 112,-259 -34,-414 -105,-112 -256,-120 -408,-46 -108,-93 -483,-408 -528,-515 124,42 186,143 339,120 253,-37 383,-320 563,-583 242,-356 329,353 632,526 457,260 1014,-556 1174,-987 76,-204 138,-456 161,-677 l 41,-225 c 1,-11 6,-13 11,-19 309,390 766,1279 788,1973 -86,93 -615,466 -717,498 z m -2993,-626 -104,2 -718,724 -38,-38 c -27,-26 -11,-13 -39,-36 l -239,-159 c -244,-156 -529,-310 -520,-531 14,-373 178,-945 337,-1254 64,-124 123,-223 201,-322 79,-99 134,-225 265,-258 8,396 109,814 257,1126 154,323 276,463 522,674 l 75,72 z m -212,-433 c -256,-298 -515,-949 -477,-1471 592,123 346,118 742,633 145,188 481,574 751,643 -38,95 -329,548 -440,576 -195,50 -506,-301 -576,-382 z m 2324,-1291 c -113,323 -673,1020 -1093,993 -391,-26 -942,-678 -1079,-1012 366,57 700,97 1079,109 414,12 716,-68 1092,-89 z m -865,1125 c 330,-131 590,-403 756,-632 274,-376 218,-596 725,-651 -7,1055 -731,1913 -1051,1831 -116,-30 -376,-431 -430,-548 z M 6811,11080 c 287,-59 647,-63 970,-126 1345,-264 2707,-861 3937,-1416 l 1444,-710 c 47,95 141,224 209,333 217,348 387,708 546,1098 106,259 193,549 258,835 46,199 86,815 159,912 148,3 175,-159 223,-277 l 150,-370 c 121,1111 117,2108 -60,3228 -55,345 -664,1000 -842,1149 -54,45 -88,86 -145,129 -47,35 -91,69 -142,107 -296,220 -605,394 -965,530 -1576,597 -3515,356 -4762,-589 -195,-148 -402,-317 -542,-479 -142,-164 -298,-350 -432,-565 -460,-736 -244,-2942 -6,-3787 z m 281,-1640 c 66,-91 209,-127 132,-234 -107,-75 -298,166 -357,238 -165,202 -818,1084 -606,1274 70,57 256,5 362,-7 -66,590 74,190 -12,520 -98,378 -209,1138 -205,1507 -3,501 -15,894 55,1395 119,845 163,649 261,1153 -192,-174 -493,-974 -585,-1332 -134,-521 -236,-1082 -263,-1639 -8,-175 -19,-903 -64,-993 -158,-2 -131,63 -127,223 31,1246 163,2531 776,3633 70,126 236,332 252,412 121,69 210,246 314,163 63,-91 -101,-345 -127,-478 5,4 12,10 15,13 l 182,200 c 248,308 734,667 1081,862 170,96 348,166 512,254 -446,466 -352,422 -642,1013 -88,-27 -209,-62 -272,-120 -279,-74 -698,-429 -871,-570 -214,-174 -467,-499 -647,-773 C 4993,14233 5256,11064 5871,8997 l 267,-829 c 42,-113 48,-143 165,-186 343,-126 715,-235 1090,-330 1650,-418 3482,-532 5164,-241 630,109 1691,370 2192,640 l 157,201 c 592,1167 911,2844 894,4130 -61,1174 -100,2080 -433,3169 -269,877 -879,1672 -1715,1908 l -430,95 c -45,-152 -171,-360 -251,-494 l -280,-433 c 171,-138 1012,-378 1673,-1256 l 189,-226 c -27,185 -70,371 -112,553 -91,397 -176,467 34,467 503,-546 879,-1466 967,-2479 144,-1032 51,-2442 -91,-3510 -24,-180 7,-353 -172,-340 -46,95 122,1285 137,1525 37,562 48,1100 25,1668 -21,505 -93,1040 -211,1511 -59,236 -316,1014 -531,1198 24,-223 107,-522 148,-760 44,-254 80,-501 110,-761 167,-1424 100,-1919 -56,-3273 -15,-130 134,-1667 -139,-1486 -75,56 -37,130 -17,272 13,91 20,178 26,270 26,400 -43,1360 -246,1598 -174,-1061 -453,-1781 -1005,-2658 l -189,-306 c -118,2 -595,280 -740,353 -727,369 -1480,714 -2242,1022 -668,270 -2715,1013 -3473,891 -41,-304 183,-386 -377,-321 69,-382 517,-1010 695,-1140 z m 6088,-2087 c -184,14 -1638,-402 -3665,-219 -852,77 -1714,226 -2530,460 -195,56 -585,207 -748,231 l -585,-913 c 208,-435 1100,-1322 1523,-1694 248,-219 609,-470 933,-661 1222,-720 2496,-905 3864,-423 382,135 772,335 1069,525 179,115 821,546 895,685 149,59 661,581 785,723 l 523,598 c 45,51 122,135 158,197 -22,99 -532,872 -629,999 -97,-6 -633,-217 -782,-268 -173,-59 -700,-158 -811,-241 z M 5457,6888 c 0,125 598,910 598,971 l -315,980 c -628,2115 -923,5098 182,7073 54,97 113,215 175,298 282,379 277,420 661,809 226,229 866,672 1214,753 -2,74 -172,761 -145,941 28,184 84,41 51,283 -29,220 -53,439 -78,648 -26,220 70,293 221,519 -70,47 -423,371 -423,448 0,87 343,380 417,455 116,116 338,364 455,442 -103,444 -188,1511 -260,1982 -82,536 346,534 808,534 39,470 352,2157 707,2382 269,171 1757,308 2087,-135 160,-215 270,-671 344,-976 86,-355 149,-718 209,-1111 24,-158 -4,-159 163,-161 939,-10 679,-395 548,-1565 l -114,-843 c 13,-82 66,-55 66,-330 0,-380 -75,-829 -75,-1021 112,26 291,181 591,-57 l 1415,-1026 c 122,-72 684,-51 684,-287 0,-270 -561,-414 -673,-423 -23,-274 -297,-263 -410,-161 -229,208 -49,100 -437,310 -208,112 -406,245 -598,374 -10,-120 -24,-51 4,-146 16,-53 31,-52 15,-170 -86,-632 -204,-815 -220,-918 -13,-80 239,-59 558,-202 1109,-498 1537,-1432 1808,-2551 17,-71 25,-130 41,-208 205,-1015 350,-2734 133,-3799 l -96,-576 c -118,-883 -437,-1713 -848,-2490 l 173,-250 c 638,-1068 656,-620 65,-1383 -46,-60 -70,-77 -121,-128 l -896,-898 -567,-454 c -657,-494 -1798,-1121 -2939,-1121 -849,0 -1227,83 -1947,370 -660,263 -1557,900 -2082,1430 -365,369 -627,666 -938,1079 l -213,310 z"
   id="path16" />
   <path
   class="fil2"
   d="m 6041,8744 c 60,-218 375,-497 690,-438 963,181 1912,392 2915,497 -82,106 -306,207 -424,259 -466,207 -1351,293 -1705,93 l 105,-331 c -336,117 -411,182 -835,125 -298,-40 -516,-161 -745,-206 z m 1730,8755 c 44,-31 87,27 -134,-186 -66,-63 -117,-126 -173,-201 -102,-136 -210,-284 -306,-441 -174,-285 -372,-702 -449,-1079 -16,-79 -182,-286 -252,-412 -613,-1101 -745,-2387 -776,-3633 -4,-160 -31,-225 127,-223 45,90 56,818 64,993 l 235,497 c 51,106 230,378 248,451 28,-166 -9,-380 49,-525 -3,-370 107,-1129 205,-1507 86,-330 -54,70 12,-520 -106,12 -292,64 -362,7 -212,-191 441,-1072 606,-1274 58,-71 250,-312 357,-238 77,107 -66,143 -132,234 -3,972 285,800 1321,528 586,-154 1159,-307 1719,-499 722,-249 1710,-612 2359,-1002 126,-76 215,-124 342,-206 422,-273 267,-332 871,244 189,180 312,476 398,554 79,-377 25,-300 36,-460 21,-317 495,177 619,172 23,-284 38,-436 -9,-720 -501,-270 -1561,-531 -2192,-640 -1682,-291 -3514,-177 -5164,241 -375,95 -747,203 -1090,330 -117,43 -123,73 -165,186 l -267,829 c -615,2066 -879,5236 385,7157 180,273 433,598 647,773 173,141 592,496 871,570 z"
   id="path18" />
   <path
   class="fil3"
   d="m 10832,5171 764,13 c 43,144 17,446 17,610 -8,132 2,39 -37,73 l -739,-1 -12,761 -651,1 c -45,-141 -16,-578 -18,-762 l -760,-4 -2,-677 762,-5 4,-759 678,4 -2,745 z m 2347,2185 c 60,-58 52,-105 102,-239 32,-86 61,-171 92,-256 116,-320 465,-1343 562,-1514 -74,-139 -717,-570 -895,-685 -297,-191 -687,-391 -1069,-525 -1368,-482 -2642,-296 -3864,423 -324,191 -685,442 -933,661 -423,372 -1315,1259 -1523,1694 l 585,913 c 163,-24 553,-176 748,-231 816,-233 1678,-383 2530,-460 2027,-183 3481,232 3665,219 z"
   id="path20" />
   <path
   class="fil4"
   d="m 7091,9442 c -178,129 -627,758 -695,1140 560,-65 337,17 377,321 758,122 2805,-621 3473,-891 762,-308 1515,-653 2242,-1022 145,-73 622,-352 740,-353 l 189,306 c 552,877 831,1598 1005,2658 204,-237 272,-1197 246,-1598 -6,-92 -13,-179 -26,-270 -21,-142 -58,-216 17,-272 273,-182 124,1356 139,1486 156,1354 223,1849 56,3273 -30,260 -66,507 -110,761 -41,237 -124,536 -148,760 215,-184 472,-962 531,-1198 118,-471 191,-1006 211,-1511 23,-568 13,-1106 -25,-1668 -16,-240 -183,-1430 -137,-1525 179,-13 148,159 172,340 142,1067 235,2478 91,3510 103,-98 185,-434 225,-600 34,-144 91,-631 133,-704 16,-1286 -302,-2963 -894,-4130 l -157,-201 c 47,283 32,436 9,720 -124,5 -598,-489 -619,-172 -11,160 44,83 -36,460 -86,-77 -209,-374 -398,-554 -605,-576 -449,-517 -871,-244 -127,82 -216,131 -342,206 -650,390 -1637,753 -2359,1002 -560,193 -1132,346 -1719,499 -1035,272 -1324,444 -1321,-528 z"
   id="path22" />
   <path
   class="fil3"
   d="m 12808,21732 c -36,-40 -16,-30 -78,-42 -216,19 -470,85 -717,110 -465,47 -1104,67 -1576,70 -267,1 -548,-45 -797,-44 -123,103 -300,329 -423,396 -109,13 -488,-500 -606,-544 -35,285 -336,1963 -188,2098 217,199 4195,174 4511,34 168,-75 98,-315 79,-489 -45,-425 -197,-1325 -205,-1587 z"
   id="path24" />
   <path
   class="fil3"
   d="m 10559,18588 c 344,-202 586,364 260,515 -333,155 -599,-317 -260,-515 z m -893,30 c 45,108 420,422 528,515 152,-74 303,-66 408,46 146,155 54,248 34,414 110,72 445,518 568,562 215,141 134,232 22,400 l -729,1108 c -127,12 -303,22 -402,-16 -55,4 -43,-16 -112,37 238,79 2079,-27 2390,-93 -106,-388 -116,-892 -248,-1320 -92,-298 68,-439 194,-567 250,-254 264,-379 341,-461 103,-32 631,-406 717,-498 -23,-694 -479,-1583 -788,-1973 -5,6 -9,8 -11,19 l -41,225 c -23,221 -85,473 -161,677 -161,431 -717,1247 -1174,987 -303,-172 -390,-882 -632,-526 -180,264 -310,547 -563,583 -154,22 -215,-78 -339,-120 z"
   id="path26" />
   <path
   class="fil5"
   d="m 13178,7355 c 111,83 638,182 811,241 149,51 685,262 782,268 97,-127 608,-900 629,-999 -36,-63 -112,-146 -158,-197 l -523,-598 c -124,-141 -636,-664 -785,-723 -97,171 -446,1194 -562,1514 -31,85 -59,169 -92,256 -50,133 -42,180 -102,239 z"
   id="path28" />
   <path
   class="fil6"
   d="m 11595,5867 c 47,-187 9,-471 20,-676 l -590,5 c -21,0 -84,2 -102,0 -71,-8 22,9 -43,-9 -6,-2 -14,-7 -18,-8 -4,-2 -11,-6 -17,-10 l 2,-745 -684,-4 -4,759 -769,5 2,677 767,4 c 1,185 -27,621 18,762 l 657,-1 13,-761 746,1 z"
   id="path30" />
   <path
   class="fil0"
   d="m 10739,25826 c 250,118 399,125 698,25 94,-32 216,-85 299,-127 155,-78 154,-54 199,-225 121,-461 217,-972 280,-1450 l -1475,29 -1,1747 z"
   id="path32" />
   <path
   class="fil0"
   d="m 9195,24046 c 38,426 162,1001 266,1406 40,155 28,201 155,269 84,45 199,95 296,128 206,70 478,121 669,-12 l -3,-1746 -1383,-44 z"
   id="path34" />
   <path
   class="fil3"
   d="m 9666,18618 -75,-72 c -247,-211 -369,-351 -522,-674 -148,-311 -249,-729 -257,-1126 -131,33 -186,159 -265,258 -78,99 -138,198 -201,322 -159,309 -323,881 -337,1254 -9,221 277,375 520,531 l 239,159 c 27,23 12,10 39,36 l 38,38 718,-724 104,-2 z"
   id="path36" />
   <path
   class="fil0"
   d="m 10042,20782 c 50,-50 69,-38 121,-92 l -576,130 c -224,-218 -321,-450 -495,-729 -71,-114 -170,-260 -248,-350 -125,-144 -171,-164 -324,-298 -10,-214 166,-25 -153,-246 -103,-71 -190,-153 -296,-209 -82,146 -79,452 -93,642 -17,225 57,248 229,499 201,294 402,575 663,807 168,150 611,520 892,579 117,25 209,11 275,-57 481,-494 27,-419 6,-677 z"
   id="path38" />
   <path
   class="fil7"
   d="m 6041,8744 c 229,44 447,166 745,206 423,57 498,-9 835,-125 l -105,331 c 355,199 1240,114 1705,-93 118,-52 343,-154 424,-259 -1002,-105 -1952,-316 -2915,-497 -315,-59 -629,220 -690,438 z"
   id="path40" />
   <path
   class="fil4"
   d="m 13649,17461 c 24,-69 -4,-5 28,-56 49,-79 365,-348 615,-881 46,-97 88,-243 151,-325 l 29,-31 c -210,0 -125,-71 -34,-467 42,-182 85,-368 112,-553 l -189,226 c -661,878 -1502,1118 -1673,1256 l 280,433 c 80,134 206,342 251,494 l 430,-95 z"
   id="path42" />
   <path
   class="fil4"
   d="m 6709,15591 c 77,377 275,794 449,1079 96,157 204,306 306,441 56,75 107,138 173,201 221,213 178,155 134,186 64,58 185,93 272,120 290,-591 197,-547 642,-1013 -163,-88 -341,-159 -512,-254 -347,-195 -833,-554 -1081,-862 l -182,-200 c -3,-3 -10,-9 -15,-13 26,134 189,387 127,478 -104,83 -193,-94 -314,-163 z"
   id="path44" />
   <path
   class="fil2"
   d="m 15439,13688 c -88,1014 -464,1933 -967,2479 l -29,31 c -63,82 -105,227 -151,325 -250,533 -566,802 -615,881 -32,51 -3,-13 -28,56 836,-236 1446,-1031 1715,-1908 333,-1089 372,-1995 433,-3169 -43,74 -99,561 -133,704 -39,166 -122,501 -225,600 z"
   id="path46" />
   <path
   class="fil0"
   d="m 13373,19120 -23,-139 -530,363 c 12,227 102,793 361,815 195,17 509,-269 744,-440 234,-171 461,-330 695,-500 68,-49 291,-220 358,-238 160,-43 377,3 486,-109 -58,-90 -243,-152 -373,-196 -61,-21 -180,-37 -215,-55 -104,-55 -32,-93 -106,-200 -123,4 -147,120 -460,289 -154,83 -326,181 -471,276 -215,142 -646,528 -654,310 -3,-71 147,-157 186,-176 z"
   id="path48" />
   <path
   class="fil8"
   d="m 8892,19515 c 24,86 252,344 374,552 100,172 243,457 375,570 76,25 671,-260 749,9 29,98 6,86 -34,135 -38,47 -37,12 -54,80 -1,3 -2,10 0,15 71,13 134,-79 189,-135 64,-64 110,-110 174,-174 105,-105 264,-243 343,-352 l -271,-278 c -113,73 -135,180 -274,216 -93,-50 -764,-722 -805,-809 45,-110 151,-178 222,-255 -60,-78 -195,-232 -298,-276 l -689,702 z"
   id="path50" />
   <path
   class="fil0"
   d="m 11778,16895 c -376,22 -679,101 -1092,89 -380,-11 -713,-52 -1079,-109 137,334 687,987 1079,1012 420,27 980,-670 1093,-993 z"
   id="path52" />
   <path
   class="fil3"
   d="m 10470,17990 c -270,-68 -606,-454 -751,-643 -396,-515 -150,-510 -742,-633 -38,522 221,1173 477,1471 70,81 380,432 576,382 111,-29 402,-482 440,-576 z"
   id="path54" />
   <path
   class="fil3"
   d="m 10913,18020 c 53,117 314,518 430,548 321,83 1044,-776 1051,-1831 -507,55 -450,275 -725,651 -167,228 -426,500 -756,632 z"
   id="path56" />
   <path
   class="fil5"
   d="m 12373,21593 c 150,-20 365,-48 459,-132 141,-308 -194,-1791 -172,-2217 -77,82 -91,207 -341,461 -126,128 -286,269 -194,567 132,428 142,932 248,1320 z"
   id="path58" />
   <path
   class="fil1"
   d="m 8399,12789 c 93,-83 103,-71 202,-32 49,257 -216,264 -202,32 z m 467,-577 c 316,-176 498,348 202,458 -283,105 -494,-295 -202,-458 z m -667,435 c -231,103 -263,112 -559,96 25,30 6,17 55,52 23,17 35,23 65,36 255,114 345,18 480,-31 358,744 1328,325 1157,-363 -109,-439 -678,-646 -1052,-241 -113,122 -129,249 -146,451 z"
   id="path60" />
   <path
   class="fil1"
   d="m 12168,12930 c -72,20 -120,15 -178,-20 -81,-244 260,-252 178,20 z m 269,-710 c 337,-169 493,313 230,438 -301,143 -532,-287 -230,-438 z m 492,628 c 219,48 370,55 536,-98 -203,-14 -284,25 -478,-63 8,-892 -985,-887 -1181,-292 -240,727 805,1120 1123,454 z"
   id="path62" />
   <path
   class="fil8"
   d="m 7811,20614 c 35,71 12,34 67,94 l 959,958 c 97,97 275,254 341,354 108,-45 144,-110 216,-182 71,-71 141,-125 192,-206 -308,-152 -593,-362 -819,-569 -395,-363 -529,-651 -647,-758 -101,59 -248,208 -310,309 z"
   id="path64" />
   <path
   class="fil9"
   d="m 6404,12740 c -57,145 -20,359 -49,525 -18,-74 -196,-346 -248,-451 l -235,-497 c 27,557 129,1118 263,1639 92,358 393,1158 585,1332 -99,-505 -143,-308 -261,-1153 -70,-501 -58,-894 -55,-1395 z"
   id="path66" />
   <path
   class="fil10"
   d="m 7125,13256 c -249,47 -554,261 -314,473 154,136 509,185 758,133 749,-157 327,-751 -444,-606 z"
   id="path68" />
   <path
   class="fil10"
   d="m 13701,13256 c -249,47 -554,261 -314,473 154,136 509,185 758,133 749,-157 327,-751 -444,-606 z"
   id="path70" />
   <path
   class="fil5"
   d="m 10095,21649 c 99,38 275,28 402,16 l 729,-1108 c 112,-168 193,-259 -22,-400 l 4,106 c -168,116 -466,454 -631,617 -348,344 72,44 -339,583 -41,53 -111,128 -144,187 z"
   id="path72" />
   <path
   class="fil11"
   d="m 10745,26384 c 241,12 492,-2 711,-69 219,-67 290,-218 358,-448 -443,168 -544,272 -1075,150 z"
   id="path74" />
   <path
   class="fil1"
   d="m 9710,13885 c -38,149 119,235 300,332 475,254 899,184 1317,-110 101,-71 168,-81 120,-205 -113,-34 -266,121 -390,184 -140,72 -308,126 -495,123 -552,-10 -714,-397 -852,-323 z"
   id="path76" />
   <path
   class="fil11"
   d="m 10579,26027 c -566,101 -505,6 -969,-128 17,101 62,180 113,262 132,215 616,250 858,225 z"
   id="path78" />
   <path
   class="fil1"
   d="m 8167,11595 c 163,-23 280,-218 676,-168 142,18 209,62 325,96 164,48 229,-56 130,-180 -239,-298 -1138,-164 -1131,252 z"
   id="path80" />
   <path
   class="fil1"
   d="m 11810,11521 c 154,44 354,-101 595,-101 303,0 417,165 565,169 15,-480 -1243,-571 -1160,-68 z"
   id="path82" />
   <path
   class="fil1"
   d="m 10574,18846 c 86,-276 404,20 112,114 -67,-26 -87,-47 -112,-114 z m -15,-258 c -339,199 -73,670 260,515 326,-151 84,-717 -260,-515 z"
   id="path84" />
   <path
   class="fil3"
   d="m 12437,12220 c -302,151 -71,581 230,438 262,-125 107,-607 -230,-438 z"
   id="path86" />
   <path
   class="fil3"
   d="m 8866,12212 c -293,163 -82,563 202,458 297,-110 115,-634 -202,-458 z"
   id="path88" />
   <path
   class="fil8"
   d="m 9858,19337 c 87,111 541,574 642,615 37,-55 56,-63 103,-135 l -605,-617 -139,137 z"
   id="path90" />
   <path
   class="fil12"
   d="m 10574,18846 c 25,68 45,88 112,114 292,-94 -26,-391 -112,-114 z"
   id="path92" />
   <path
   class="fil13"
   d="m 8399,12789 c -14,233 252,225 202,-32 -100,-39 -109,-51 -202,32 z"
   id="path94" />
   <path
   class="fil13"
   d="m 12168,12930 c 82,-271 -259,-264 -178,-20 58,35 106,39 178,20 z"
   id="path96" />
   <path
   class="fil14"
   d="m 10508,19425 c -11,-129 -35,-162 -172,-164 40,70 89,132 172,164 z"
   id="path98" />
   <path
   class="fil15"
   d="m 12808,21732 -21,-74 -57,32 c 62,13 42,2 78,42 z"
   id="path100" />
  </g>
 </g>
</svg>
